<svg id="visual" viewBox="0 0 900 600" width="900" height="600" xmlns="http://www.w3.org/2000/svg" xmlns:xlink="http://www.w3.org/1999/xlink" version="1.1"><rect x="0" y="0" width="900" height="600" fill="#b99053"></rect><defs><linearGradient id="grad1_0" x1="33.3%" y1="100%" x2="100%" y2="0%"><stop offset="20%" stop-color="#b99053" stop-opacity="1"></stop><stop offset="80%" stop-color="#b99053" stop-opacity="1"></stop></linearGradient></defs><defs><linearGradient id="grad2_0" x1="0%" y1="100%" x2="66.7%" y2="0%"><stop offset="20%" stop-color="#b99053" stop-opacity="1"></stop><stop offset="80%" stop-color="#b99053" stop-opacity="1"></stop></linearGradient></defs><g transform="translate(900, 600)"><path d="M-486.7 0C-446.5 -54.6 -406.3 -109.1 -374.2 -155C-342 -200.8 -318 -237.9 -291.3 -291.3C-264.6 -344.7 -235.3 -414.4 -186.3 -449.7C-137.3 -485 -68.6 -485.9 0 -486.7L0 0Z" fill="#1c4391"></path></g><g transform="translate(0, 0)"><path d="M486.7 0C472.5 58.6 458.2 117.3 438.8 181.8C419.5 246.3 395 316.6 344.2 344.2C293.4 371.8 216.3 356.6 154.6 373.2C92.9 389.9 46.4 438.3 0 486.7L0 0Z" fill="#1c4391"></path></g></svg>