<svg xmlns="http://www.w3.org/2000/svg" version="1.1" xmlns:xlink="http://www.w3.org/1999/xlink" xmlns:svgjs="http://svgjs.com/svgjs" width="1440" height="588" preserveAspectRatio="none" viewBox="0 0 1440 588"><g mask="url(&quot;#SvgjsMask1427&quot;)" fill="none"><rect width="1440" height="588" x="0" y="0" fill="url(#SvgjsLinearGradient1428)"></rect><g mask="url(&quot;#SvgjsMask1430&quot;)"><path d="M745.5 346.5L745.5 325.5L745.5 304.5L724.5 283.5M745.5 409.5L724.5 388.5L724.5 367.5L724.5 346.5M787.5 220.5L766.5 199.5L766.5 178.5L766.5 157.5L766.5 136.5M787.5 262.5L766.5 241.5L766.5 220.5M724.5 535.5L745.5 514.5M724.5 619.5L724.5 598.5L724.5 577.5L724.5 556.5L724.5 535.5L724.5 514.5L745.5 493.5L745.5 472.5L745.5 451.5L745.5 430.5L745.5 409.5L745.5 388.5L745.5 367.5L745.5 346.5L766.5 325.5L766.5 304.5L766.5 283.5L787.5 262.5L787.5 241.5L787.5 220.5L787.5 199.5L787.5 178.5" stroke="url(#SvgjsLinearGradient1429)" stroke-width="3.5"></path><path d="M782.25 178.5 a5.25 5.25 0 1 0 10.5 0 a5.25 5.25 0 1 0 -10.5 0zM719.25 283.5 a5.25 5.25 0 1 0 10.5 0 a5.25 5.25 0 1 0 -10.5 0zM719.25 346.5 a5.25 5.25 0 1 0 10.5 0 a5.25 5.25 0 1 0 -10.5 0zM761.25 136.5 a5.25 5.25 0 1 0 10.5 0 a5.25 5.25 0 1 0 -10.5 0zM761.25 220.5 a5.25 5.25 0 1 0 10.5 0 a5.25 5.25 0 1 0 -10.5 0zM740.25 514.5 a5.25 5.25 0 1 0 10.5 0 a5.25 5.25 0 1 0 -10.5 0z" fill="url(#SvgjsLinearGradient1429)"></path><path d="M703.5 451.5L724.5 430.5L724.5 409.5M703.5 535.5L682.5 514.5M703.5 577.5L682.5 556.5L682.5 535.5M703.5 367.5L682.5 346.5M703.5 619.5L703.5 598.5L703.5 577.5L703.5 556.5L703.5 535.5L703.5 514.5L703.5 493.5L703.5 472.5L703.5 451.5L703.5 430.5L703.5 409.5L703.5 388.5L703.5 367.5L703.5 346.5L703.5 325.5L703.5 304.5L703.5 283.5L703.5 262.5" stroke="url(#SvgjsLinearGradient1429)" stroke-width="3.5"></path><path d="M698.25 262.5 a5.25 5.25 0 1 0 10.5 0 a5.25 5.25 0 1 0 -10.5 0zM719.25 409.5 a5.25 5.25 0 1 0 10.5 0 a5.25 5.25 0 1 0 -10.5 0zM677.25 514.5 a5.25 5.25 0 1 0 10.5 0 a5.25 5.25 0 1 0 -10.5 0zM677.25 535.5 a5.25 5.25 0 1 0 10.5 0 a5.25 5.25 0 1 0 -10.5 0zM677.25 346.5 a5.25 5.25 0 1 0 10.5 0 a5.25 5.25 0 1 0 -10.5 0z" fill="url(#SvgjsLinearGradient1429)"></path><path d="M808.5 262.5L829.5 241.5L829.5 220.5L829.5 199.5L829.5 178.5L829.5 157.5L829.5 136.5L829.5 115.5M745.5 556.5L745.5 535.5M745.5 619.5L745.5 598.5L745.5 577.5L745.5 556.5L766.5 535.5L766.5 514.5L766.5 493.5L766.5 472.5L766.5 451.5L766.5 430.5L766.5 409.5L766.5 388.5L766.5 367.5L766.5 346.5L787.5 325.5L787.5 304.5L787.5 283.5L808.5 262.5L808.5 241.5L808.5 220.5L808.5 199.5L808.5 178.5" stroke="url(#SvgjsLinearGradient1429)" stroke-width="3.5"></path><path d="M803.25 178.5 a5.25 5.25 0 1 0 10.5 0 a5.25 5.25 0 1 0 -10.5 0zM824.25 115.5 a5.25 5.25 0 1 0 10.5 0 a5.25 5.25 0 1 0 -10.5 0zM740.25 535.5 a5.25 5.25 0 1 0 10.5 0 a5.25 5.25 0 1 0 -10.5 0z" fill="url(#SvgjsLinearGradient1429)"></path><path d="M787.5 409.5L808.5 388.5L808.5 367.5M766.5 619.5L766.5 598.5L766.5 577.5L766.5 556.5L787.5 535.5L787.5 514.5L787.5 493.5L787.5 472.5L787.5 451.5L787.5 430.5L787.5 409.5L787.5 388.5L787.5 367.5" stroke="url(#SvgjsLinearGradient1429)" stroke-width="3.5"></path><path d="M782.25 367.5 a5.25 5.25 0 1 0 10.5 0 a5.25 5.25 0 1 0 -10.5 0zM803.25 367.5 a5.25 5.25 0 1 0 10.5 0 a5.25 5.25 0 1 0 -10.5 0z" fill="url(#SvgjsLinearGradient1429)"></path><path d="M661.5 472.5L682.5 451.5L682.5 430.5L682.5 409.5M661.5 598.5L682.5 577.5M661.5 451.5L640.5 430.5L640.5 409.5L640.5 388.5M661.5 619.5L661.5 598.5L661.5 577.5L661.5 556.5L661.5 535.5L661.5 514.5L661.5 493.5L661.5 472.5L661.5 451.5L661.5 430.5L661.5 409.5L661.5 388.5L661.5 367.5" stroke="url(#SvgjsLinearGradient1429)" stroke-width="3.5"></path><path d="M656.25 367.5 a5.25 5.25 0 1 0 10.5 0 a5.25 5.25 0 1 0 -10.5 0zM677.25 409.5 a5.25 5.25 0 1 0 10.5 0 a5.25 5.25 0 1 0 -10.5 0zM677.25 577.5 a5.25 5.25 0 1 0 10.5 0 a5.25 5.25 0 1 0 -10.5 0zM635.25 388.5 a5.25 5.25 0 1 0 10.5 0 a5.25 5.25 0 1 0 -10.5 0z" fill="url(#SvgjsLinearGradient1429)"></path><path d="M808.5 325.5L829.5 304.5L829.5 283.5L829.5 262.5M829.5 367.5L829.5 346.5L829.5 325.5M787.5 619.5L787.5 598.5L787.5 577.5L787.5 556.5L808.5 535.5L808.5 514.5L808.5 493.5L808.5 472.5L808.5 451.5L808.5 430.5L829.5 409.5L829.5 388.5L829.5 367.5L808.5 346.5L808.5 325.5L808.5 304.5" stroke="url(#SvgjsLinearGradient1429)" stroke-width="3.5"></path><path d="M803.25 304.5 a5.25 5.25 0 1 0 10.5 0 a5.25 5.25 0 1 0 -10.5 0zM824.25 262.5 a5.25 5.25 0 1 0 10.5 0 a5.25 5.25 0 1 0 -10.5 0zM824.25 325.5 a5.25 5.25 0 1 0 10.5 0 a5.25 5.25 0 1 0 -10.5 0z" fill="url(#SvgjsLinearGradient1429)"></path><path d="M640.5 514.5L640.5 493.5L640.5 472.5L640.5 451.5L619.5 430.5L619.5 409.5L619.5 388.5L619.5 367.5M598.5 283.5L619.5 262.5L640.5 241.5M598.5 346.5L619.5 325.5L619.5 304.5L619.5 283.5M556.5 199.5L577.5 178.5L577.5 157.5M577.5 220.5L577.5 199.5M640.5 619.5L640.5 598.5L640.5 577.5L640.5 556.5L640.5 535.5L640.5 514.5L619.5 493.5L619.5 472.5L598.5 451.5L598.5 430.5L598.5 409.5L598.5 388.5L598.5 367.5L598.5 346.5L598.5 325.5L598.5 304.5L598.5 283.5L598.5 262.5L598.5 241.5L577.5 220.5L556.5 199.5L556.5 178.5L556.5 157.5" stroke="url(#SvgjsLinearGradient1429)" stroke-width="3.5"></path><path d="M551.25 157.5 a5.25 5.25 0 1 0 10.5 0 a5.25 5.25 0 1 0 -10.5 0zM614.25 367.5 a5.25 5.25 0 1 0 10.5 0 a5.25 5.25 0 1 0 -10.5 0zM635.25 241.5 a5.25 5.25 0 1 0 10.5 0 a5.25 5.25 0 1 0 -10.5 0zM614.25 283.5 a5.25 5.25 0 1 0 10.5 0 a5.25 5.25 0 1 0 -10.5 0zM572.25 157.5 a5.25 5.25 0 1 0 10.5 0 a5.25 5.25 0 1 0 -10.5 0zM572.25 199.5 a5.25 5.25 0 1 0 10.5 0 a5.25 5.25 0 1 0 -10.5 0z" fill="url(#SvgjsLinearGradient1429)"></path><path d="M808.5 619.5L808.5 598.5L808.5 577.5L808.5 556.5" stroke="url(#SvgjsLinearGradient1429)" stroke-width="3.5"></path><path d="M803.25 556.5 a5.25 5.25 0 1 0 10.5 0 a5.25 5.25 0 1 0 -10.5 0z" fill="url(#SvgjsLinearGradient1429)"></path><path d="M619.5 619.5L619.5 598.5L619.5 577.5L619.5 556.5L619.5 535.5L619.5 514.5L598.5 493.5L598.5 472.5L577.5 451.5L577.5 430.5L577.5 409.5L577.5 388.5L577.5 367.5L577.5 346.5L577.5 325.5L577.5 304.5" stroke="url(#SvgjsLinearGradient1429)" stroke-width="3.5"></path><path d="M572.25 304.5 a5.25 5.25 0 1 0 10.5 0 a5.25 5.25 0 1 0 -10.5 0z" fill="url(#SvgjsLinearGradient1429)"></path><path d="M829.5 619.5L829.5 598.5L829.5 577.5L829.5 556.5L829.5 535.5L829.5 514.5L829.5 493.5L829.5 472.5L829.5 451.5L829.5 430.5L850.5 409.5L850.5 388.5" stroke="url(#SvgjsLinearGradient1429)" stroke-width="3.5"></path><path d="M845.25 388.5 a5.25 5.25 0 1 0 10.5 0 a5.25 5.25 0 1 0 -10.5 0z" fill="url(#SvgjsLinearGradient1429)"></path><path d="M598.5 619.5L598.5 598.5L598.5 577.5" stroke="url(#SvgjsLinearGradient1429)" stroke-width="3.5"></path><path d="M593.25 577.5 a5.25 5.25 0 1 0 10.5 0 a5.25 5.25 0 1 0 -10.5 0z" fill="url(#SvgjsLinearGradient1429)"></path><path d="M850.5 283.5L871.5 262.5L871.5 241.5L871.5 220.5L871.5 199.5L871.5 178.5L871.5 157.5M850.5 325.5L871.5 304.5L892.5 283.5M871.5 388.5L871.5 367.5L871.5 346.5L871.5 325.5M850.5 619.5L850.5 598.5L850.5 577.5L850.5 556.5L850.5 535.5L850.5 514.5L850.5 493.5L850.5 472.5L850.5 451.5L850.5 430.5L871.5 409.5L871.5 388.5L850.5 367.5L850.5 346.5L850.5 325.5L850.5 304.5L850.5 283.5L850.5 262.5" stroke="url(#SvgjsLinearGradient1429)" stroke-width="3.5"></path><path d="M845.25 262.5 a5.25 5.25 0 1 0 10.5 0 a5.25 5.25 0 1 0 -10.5 0zM866.25 157.5 a5.25 5.25 0 1 0 10.5 0 a5.25 5.25 0 1 0 -10.5 0zM887.25 283.5 a5.25 5.25 0 1 0 10.5 0 a5.25 5.25 0 1 0 -10.5 0zM866.25 325.5 a5.25 5.25 0 1 0 10.5 0 a5.25 5.25 0 1 0 -10.5 0z" fill="url(#SvgjsLinearGradient1429)"></path><path d="M577.5 535.5L598.5 514.5M535.5 304.5L556.5 283.5L556.5 262.5L556.5 241.5L556.5 220.5L535.5 199.5L535.5 178.5L535.5 157.5M556.5 325.5L556.5 304.5M577.5 556.5L598.5 535.5M577.5 619.5L577.5 598.5L577.5 577.5L577.5 556.5L577.5 535.5L577.5 514.5L577.5 493.5L577.5 472.5L556.5 451.5L556.5 430.5L556.5 409.5L556.5 388.5L556.5 367.5L556.5 346.5L556.5 325.5L535.5 304.5L535.5 283.5L535.5 262.5" stroke="url(#SvgjsLinearGradient1429)" stroke-width="3.5"></path><path d="M530.25 262.5 a5.25 5.25 0 1 0 10.5 0 a5.25 5.25 0 1 0 -10.5 0zM593.25 514.5 a5.25 5.25 0 1 0 10.5 0 a5.25 5.25 0 1 0 -10.5 0zM530.25 157.5 a5.25 5.25 0 1 0 10.5 0 a5.25 5.25 0 1 0 -10.5 0zM551.25 304.5 a5.25 5.25 0 1 0 10.5 0 a5.25 5.25 0 1 0 -10.5 0zM593.25 535.5 a5.25 5.25 0 1 0 10.5 0 a5.25 5.25 0 1 0 -10.5 0z" fill="url(#SvgjsLinearGradient1429)"></path><path d="M871.5 451.5L871.5 430.5M871.5 619.5L871.5 598.5L871.5 577.5L871.5 556.5L871.5 535.5L871.5 514.5L871.5 493.5L871.5 472.5L871.5 451.5L892.5 430.5L892.5 409.5" stroke="url(#SvgjsLinearGradient1429)" stroke-width="3.5"></path><path d="M887.25 409.5 a5.25 5.25 0 1 0 10.5 0 a5.25 5.25 0 1 0 -10.5 0zM866.25 430.5 a5.25 5.25 0 1 0 10.5 0 a5.25 5.25 0 1 0 -10.5 0z" fill="url(#SvgjsLinearGradient1429)"></path><path d="M535.5 367.5L514.5 346.5L514.5 325.5M556.5 535.5L535.5 514.5L535.5 493.5L535.5 472.5L514.5 451.5M514.5 157.5L493.5 136.5M514.5 199.5L493.5 178.5L493.5 157.5L472.5 136.5L472.5 115.5M514.5 283.5L493.5 262.5M514.5 304.5L493.5 283.5L472.5 262.5M556.5 619.5L556.5 598.5L556.5 577.5L556.5 556.5L556.5 535.5L556.5 514.5L556.5 493.5L556.5 472.5L535.5 451.5L535.5 430.5L535.5 409.5L535.5 388.5L535.5 367.5L535.5 346.5L535.5 325.5L514.5 304.5L514.5 283.5L514.5 262.5L514.5 241.5L514.5 220.5L514.5 199.5L514.5 178.5L514.5 157.5L514.5 136.5" stroke="url(#SvgjsLinearGradient1429)" stroke-width="3.5"></path><path d="M509.25 136.5 a5.25 5.25 0 1 0 10.5 0 a5.25 5.25 0 1 0 -10.5 0zM509.25 325.5 a5.25 5.25 0 1 0 10.5 0 a5.25 5.25 0 1 0 -10.5 0zM509.25 451.5 a5.25 5.25 0 1 0 10.5 0 a5.25 5.25 0 1 0 -10.5 0zM488.25 136.5 a5.25 5.25 0 1 0 10.5 0 a5.25 5.25 0 1 0 -10.5 0zM467.25 115.5 a5.25 5.25 0 1 0 10.5 0 a5.25 5.25 0 1 0 -10.5 0zM488.25 262.5 a5.25 5.25 0 1 0 10.5 0 a5.25 5.25 0 1 0 -10.5 0zM467.25 262.5 a5.25 5.25 0 1 0 10.5 0 a5.25 5.25 0 1 0 -10.5 0z" fill="url(#SvgjsLinearGradient1429)"></path><path d="M892.5 472.5L913.5 451.5M892.5 535.5L913.5 514.5M892.5 493.5L913.5 472.5M892.5 619.5L892.5 598.5L892.5 577.5L892.5 556.5L892.5 535.5L892.5 514.5L892.5 493.5L892.5 472.5L892.5 451.5L913.5 430.5L913.5 409.5L913.5 388.5" stroke="url(#SvgjsLinearGradient1429)" stroke-width="3.5"></path><path d="M908.25 388.5 a5.25 5.25 0 1 0 10.5 0 a5.25 5.25 0 1 0 -10.5 0zM908.25 451.5 a5.25 5.25 0 1 0 10.5 0 a5.25 5.25 0 1 0 -10.5 0zM908.25 514.5 a5.25 5.25 0 1 0 10.5 0 a5.25 5.25 0 1 0 -10.5 0zM908.25 472.5 a5.25 5.25 0 1 0 10.5 0 a5.25 5.25 0 1 0 -10.5 0z" fill="url(#SvgjsLinearGradient1429)"></path><path d="M535.5 619.5L535.5 598.5L535.5 577.5L535.5 556.5" stroke="url(#SvgjsLinearGradient1429)" stroke-width="3.5"></path><path d="M530.25 556.5 a5.25 5.25 0 1 0 10.5 0 a5.25 5.25 0 1 0 -10.5 0z" fill="url(#SvgjsLinearGradient1429)"></path><path d="M913.5 556.5L913.5 535.5M913.5 619.5L913.5 598.5L913.5 577.5L913.5 556.5L934.5 535.5L934.5 514.5L934.5 493.5L934.5 472.5L934.5 451.5L934.5 430.5L934.5 409.5" stroke="url(#SvgjsLinearGradient1429)" stroke-width="3.5"></path><path d="M929.25 409.5 a5.25 5.25 0 1 0 10.5 0 a5.25 5.25 0 1 0 -10.5 0zM908.25 535.5 a5.25 5.25 0 1 0 10.5 0 a5.25 5.25 0 1 0 -10.5 0z" fill="url(#SvgjsLinearGradient1429)"></path><path d="M493.5 535.5L493.5 514.5L493.5 493.5M514.5 556.5L514.5 535.5L514.5 514.5L514.5 493.5M514.5 619.5L514.5 598.5L514.5 577.5L514.5 556.5L493.5 535.5L472.5 514.5" stroke="url(#SvgjsLinearGradient1429)" stroke-width="3.5"></path><path d="M467.25 514.5 a5.25 5.25 0 1 0 10.5 0 a5.25 5.25 0 1 0 -10.5 0zM488.25 493.5 a5.25 5.25 0 1 0 10.5 0 a5.25 5.25 0 1 0 -10.5 0zM509.25 493.5 a5.25 5.25 0 1 0 10.5 0 a5.25 5.25 0 1 0 -10.5 0z" fill="url(#SvgjsLinearGradient1429)"></path><path d="M934.5 619.5L934.5 598.5L934.5 577.5" stroke="url(#SvgjsLinearGradient1429)" stroke-width="3.5"></path><path d="M929.25 577.5 a5.25 5.25 0 1 0 10.5 0 a5.25 5.25 0 1 0 -10.5 0z" fill="url(#SvgjsLinearGradient1429)"></path><path d="M493.5 619.5L472.5 598.5" stroke="url(#SvgjsLinearGradient1429)" stroke-width="3.5"></path><path d="M467.25 598.5 a5.25 5.25 0 1 0 10.5 0 a5.25 5.25 0 1 0 -10.5 0z" fill="url(#SvgjsLinearGradient1429)"></path><path d="M976.5 199.5L997.5 178.5L997.5 157.5M976.5 325.5L997.5 304.5M976.5 262.5L997.5 241.5L997.5 220.5M976.5 346.5L955.5 325.5M976.5 304.5L955.5 283.5M955.5 619.5L955.5 598.5L955.5 577.5L955.5 556.5L955.5 535.5L955.5 514.5L955.5 493.5L955.5 472.5L955.5 451.5L955.5 430.5L955.5 409.5L976.5 388.5L976.5 367.5L976.5 346.5L976.5 325.5L976.5 304.5L976.5 283.5L976.5 262.5L976.5 241.5L976.5 220.5L976.5 199.5L976.5 178.5L976.5 157.5" stroke="url(#SvgjsLinearGradient1429)" stroke-width="3.5"></path><path d="M971.25 157.5 a5.25 5.25 0 1 0 10.5 0 a5.25 5.25 0 1 0 -10.5 0zM992.25 157.5 a5.25 5.25 0 1 0 10.5 0 a5.25 5.25 0 1 0 -10.5 0zM992.25 304.5 a5.25 5.25 0 1 0 10.5 0 a5.25 5.25 0 1 0 -10.5 0zM992.25 220.5 a5.25 5.25 0 1 0 10.5 0 a5.25 5.25 0 1 0 -10.5 0zM950.25 325.5 a5.25 5.25 0 1 0 10.5 0 a5.25 5.25 0 1 0 -10.5 0zM950.25 283.5 a5.25 5.25 0 1 0 10.5 0 a5.25 5.25 0 1 0 -10.5 0z" fill="url(#SvgjsLinearGradient1429)"></path><path d="M976.5 619.5L976.5 598.5L976.5 577.5L976.5 556.5L976.5 535.5L976.5 514.5L976.5 493.5L976.5 472.5L976.5 451.5L976.5 430.5L976.5 409.5L997.5 388.5L997.5 367.5L997.5 346.5L1018.5 325.5L1018.5 304.5L1018.5 283.5L1018.5 262.5L1018.5 241.5L1018.5 220.5L1018.5 199.5L1018.5 178.5L1018.5 157.5L1039.5 136.5" stroke="url(#SvgjsLinearGradient1429)" stroke-width="3.5"></path><path d="M1034.25 136.5 a5.25 5.25 0 1 0 10.5 0 a5.25 5.25 0 1 0 -10.5 0z" fill="url(#SvgjsLinearGradient1429)"></path><path d="M451.5 577.5L451.5 556.5L451.5 535.5M451.5 619.5L451.5 598.5L451.5 577.5L430.5 556.5L430.5 535.5L430.5 514.5L430.5 493.5" stroke="url(#SvgjsLinearGradient1429)" stroke-width="3.5"></path><path d="M425.25 493.5 a5.25 5.25 0 1 0 10.5 0 a5.25 5.25 0 1 0 -10.5 0zM446.25 535.5 a5.25 5.25 0 1 0 10.5 0 a5.25 5.25 0 1 0 -10.5 0z" fill="url(#SvgjsLinearGradient1429)"></path><path d="M1039.5 199.5L1060.5 178.5L1060.5 157.5L1081.5 136.5M997.5 556.5L1018.5 535.5L1018.5 514.5L1018.5 493.5M997.5 430.5L1018.5 409.5M997.5 577.5L1018.5 556.5M1039.5 241.5L1060.5 220.5L1060.5 199.5L1081.5 178.5L1081.5 157.5M997.5 619.5L997.5 598.5L997.5 577.5L997.5 556.5L997.5 535.5L997.5 514.5L997.5 493.5L997.5 472.5L997.5 451.5L997.5 430.5L997.5 409.5L1018.5 388.5L1018.5 367.5L1018.5 346.5L1039.5 325.5L1039.5 304.5L1039.5 283.5L1039.5 262.5L1039.5 241.5L1039.5 220.5L1039.5 199.5L1039.5 178.5L1039.5 157.5" stroke="url(#SvgjsLinearGradient1429)" stroke-width="3.5"></path><path d="M1034.25 157.5 a5.25 5.25 0 1 0 10.5 0 a5.25 5.25 0 1 0 -10.5 0zM1076.25 136.5 a5.25 5.25 0 1 0 10.5 0 a5.25 5.25 0 1 0 -10.5 0zM1013.25 493.5 a5.25 5.25 0 1 0 10.5 0 a5.25 5.25 0 1 0 -10.5 0zM1013.25 409.5 a5.25 5.25 0 1 0 10.5 0 a5.25 5.25 0 1 0 -10.5 0zM1013.25 556.5 a5.25 5.25 0 1 0 10.5 0 a5.25 5.25 0 1 0 -10.5 0zM1076.25 157.5 a5.25 5.25 0 1 0 10.5 0 a5.25 5.25 0 1 0 -10.5 0z" fill="url(#SvgjsLinearGradient1429)"></path><path d="M409.5 409.5L430.5 388.5L430.5 367.5L430.5 346.5M409.5 388.5L388.5 367.5L388.5 346.5L388.5 325.5L388.5 304.5L388.5 283.5M409.5 304.5L430.5 283.5L430.5 262.5M409.5 451.5L388.5 430.5L388.5 409.5L388.5 388.5L367.5 367.5L367.5 346.5L367.5 325.5M409.5 472.5L430.5 451.5M430.5 619.5L430.5 598.5L430.5 577.5L409.5 556.5L409.5 535.5L409.5 514.5L409.5 493.5L409.5 472.5L409.5 451.5L409.5 430.5L409.5 409.5L409.5 388.5L409.5 367.5L409.5 346.5L409.5 325.5L409.5 304.5L409.5 283.5L409.5 262.5L409.5 241.5L430.5 220.5L430.5 199.5" stroke="url(#SvgjsLinearGradient1429)" stroke-width="3.5"></path><path d="M425.25 199.5 a5.25 5.25 0 1 0 10.5 0 a5.25 5.25 0 1 0 -10.5 0zM425.25 346.5 a5.25 5.25 0 1 0 10.5 0 a5.25 5.25 0 1 0 -10.5 0zM383.25 283.5 a5.25 5.25 0 1 0 10.5 0 a5.25 5.25 0 1 0 -10.5 0zM425.25 262.5 a5.25 5.25 0 1 0 10.5 0 a5.25 5.25 0 1 0 -10.5 0zM362.25 325.5 a5.25 5.25 0 1 0 10.5 0 a5.25 5.25 0 1 0 -10.5 0zM425.25 451.5 a5.25 5.25 0 1 0 10.5 0 a5.25 5.25 0 1 0 -10.5 0z" fill="url(#SvgjsLinearGradient1429)"></path><path d="M409.5 619.5L409.5 598.5L409.5 577.5L388.5 556.5L388.5 535.5L388.5 514.5" stroke="url(#SvgjsLinearGradient1429)" stroke-width="3.5"></path><path d="M383.25 514.5 a5.25 5.25 0 1 0 10.5 0 a5.25 5.25 0 1 0 -10.5 0z" fill="url(#SvgjsLinearGradient1429)"></path><path d="M1039.5 493.5L1039.5 472.5L1039.5 451.5L1039.5 430.5M1039.5 598.5L1018.5 577.5M1039.5 619.5L1039.5 598.5L1039.5 577.5L1039.5 556.5L1039.5 535.5L1039.5 514.5L1039.5 493.5L1018.5 472.5" stroke="url(#SvgjsLinearGradient1429)" stroke-width="3.5"></path><path d="M1013.25 472.5 a5.25 5.25 0 1 0 10.5 0 a5.25 5.25 0 1 0 -10.5 0zM1034.25 430.5 a5.25 5.25 0 1 0 10.5 0 a5.25 5.25 0 1 0 -10.5 0zM1013.25 577.5 a5.25 5.25 0 1 0 10.5 0 a5.25 5.25 0 1 0 -10.5 0z" fill="url(#SvgjsLinearGradient1429)"></path><path d="M346.5 388.5L325.5 367.5L325.5 346.5M346.5 451.5L367.5 430.5L367.5 409.5L367.5 388.5M325.5 178.5L325.5 157.5L325.5 136.5L325.5 115.5M346.5 409.5L325.5 388.5L304.5 367.5M346.5 157.5L367.5 136.5L367.5 115.5M367.5 514.5L367.5 493.5L388.5 472.5L388.5 451.5M388.5 619.5L388.5 598.5L388.5 577.5L367.5 556.5L367.5 535.5L367.5 514.5L346.5 493.5L346.5 472.5L346.5 451.5L346.5 430.5L346.5 409.5L346.5 388.5L346.5 367.5L346.5 346.5L346.5 325.5L346.5 304.5L346.5 283.5L346.5 262.5L325.5 241.5L325.5 220.5L325.5 199.5L325.5 178.5L346.5 157.5L346.5 136.5L346.5 115.5" stroke="url(#SvgjsLinearGradient1429)" stroke-width="3.5"></path><path d="M341.25 115.5 a5.25 5.25 0 1 0 10.5 0 a5.25 5.25 0 1 0 -10.5 0zM320.25 346.5 a5.25 5.25 0 1 0 10.5 0 a5.25 5.25 0 1 0 -10.5 0zM362.25 388.5 a5.25 5.25 0 1 0 10.5 0 a5.25 5.25 0 1 0 -10.5 0zM320.25 115.5 a5.25 5.25 0 1 0 10.5 0 a5.25 5.25 0 1 0 -10.5 0zM299.25 367.5 a5.25 5.25 0 1 0 10.5 0 a5.25 5.25 0 1 0 -10.5 0zM362.25 115.5 a5.25 5.25 0 1 0 10.5 0 a5.25 5.25 0 1 0 -10.5 0zM383.25 451.5 a5.25 5.25 0 1 0 10.5 0 a5.25 5.25 0 1 0 -10.5 0z" fill="url(#SvgjsLinearGradient1429)"></path><path d="M1060.5 283.5L1081.5 262.5M1060.5 598.5L1081.5 577.5L1081.5 556.5M1060.5 493.5L1081.5 472.5L1102.5 451.5L1102.5 430.5L1102.5 409.5L1102.5 388.5M1060.5 304.5L1081.5 283.5M1060.5 619.5L1060.5 598.5L1060.5 577.5L1060.5 556.5L1060.5 535.5L1060.5 514.5L1060.5 493.5L1060.5 472.5L1060.5 451.5L1060.5 430.5L1060.5 409.5L1039.5 388.5L1039.5 367.5L1039.5 346.5L1060.5 325.5L1060.5 304.5L1060.5 283.5L1060.5 262.5" stroke="url(#SvgjsLinearGradient1429)" stroke-width="3.5"></path><path d="M1055.25 262.5 a5.25 5.25 0 1 0 10.5 0 a5.25 5.25 0 1 0 -10.5 0zM1076.25 262.5 a5.25 5.25 0 1 0 10.5 0 a5.25 5.25 0 1 0 -10.5 0zM1076.25 556.5 a5.25 5.25 0 1 0 10.5 0 a5.25 5.25 0 1 0 -10.5 0zM1097.25 388.5 a5.25 5.25 0 1 0 10.5 0 a5.25 5.25 0 1 0 -10.5 0zM1076.25 283.5 a5.25 5.25 0 1 0 10.5 0 a5.25 5.25 0 1 0 -10.5 0z" fill="url(#SvgjsLinearGradient1429)"></path><path d="M325.5 493.5L304.5 472.5L304.5 451.5L304.5 430.5M346.5 556.5L325.5 535.5L325.5 514.5L304.5 493.5M367.5 619.5L367.5 598.5L367.5 577.5L346.5 556.5L346.5 535.5L346.5 514.5L325.5 493.5L325.5 472.5L325.5 451.5" stroke="url(#SvgjsLinearGradient1429)" stroke-width="3.5"></path><path d="M320.25 451.5 a5.25 5.25 0 1 0 10.5 0 a5.25 5.25 0 1 0 -10.5 0zM299.25 430.5 a5.25 5.25 0 1 0 10.5 0 a5.25 5.25 0 1 0 -10.5 0zM299.25 493.5 a5.25 5.25 0 1 0 10.5 0 a5.25 5.25 0 1 0 -10.5 0z" fill="url(#SvgjsLinearGradient1429)"></path></g></g><defs><mask id="SvgjsMask1427"><rect width="1440" height="588" fill="#ffffff"></rect></mask><linearGradient x1="14.79%" y1="136.22%" x2="85.21%" y2="-36.22%" gradientUnits="userSpaceOnUse" id="SvgjsLinearGradient1428"><stop stop-color="#0e2a47" offset="0"></stop><stop stop-color="rgba(10, 10, 11, 1)" offset="1"></stop></linearGradient><linearGradient x1="224.784" y1="-177.72888000000003" x2="1215.216" y2="812.7688800000001" gradientUnits="userSpaceOnUse" id="SvgjsLinearGradient1429"><stop stop-color="#3a7cc3" offset="0"></stop><stop stop-color="rgba(118, 63, 63, 1)" offset="1"></stop></linearGradient><mask id="SvgjsMask1430"><rect width="1440" height="588" fill="white"></rect><path d="M784.87 178.5 a2.63 2.63 0 1 0 5.26 0 a2.63 2.63 0 1 0 -5.26 0zM721.87 283.5 a2.63 2.63 0 1 0 5.26 0 a2.63 2.63 0 1 0 -5.26 0zM721.87 346.5 a2.63 2.63 0 1 0 5.26 0 a2.63 2.63 0 1 0 -5.26 0zM763.87 136.5 a2.63 2.63 0 1 0 5.26 0 a2.63 2.63 0 1 0 -5.26 0zM763.87 220.5 a2.63 2.63 0 1 0 5.26 0 a2.63 2.63 0 1 0 -5.26 0zM742.87 514.5 a2.63 2.63 0 1 0 5.26 0 a2.63 2.63 0 1 0 -5.26 0z" fill="black"></path><path d="M700.87 262.5 a2.63 2.63 0 1 0 5.26 0 a2.63 2.63 0 1 0 -5.26 0zM721.87 409.5 a2.63 2.63 0 1 0 5.26 0 a2.63 2.63 0 1 0 -5.26 0zM679.87 514.5 a2.63 2.63 0 1 0 5.26 0 a2.63 2.63 0 1 0 -5.26 0zM679.87 535.5 a2.63 2.63 0 1 0 5.26 0 a2.63 2.63 0 1 0 -5.26 0zM679.87 346.5 a2.63 2.63 0 1 0 5.26 0 a2.63 2.63 0 1 0 -5.26 0z" fill="black"></path><path d="M805.87 178.5 a2.63 2.63 0 1 0 5.26 0 a2.63 2.63 0 1 0 -5.26 0zM826.87 115.5 a2.63 2.63 0 1 0 5.26 0 a2.63 2.63 0 1 0 -5.26 0zM742.87 535.5 a2.63 2.63 0 1 0 5.26 0 a2.63 2.63 0 1 0 -5.26 0z" fill="black"></path><path d="M784.87 367.5 a2.63 2.63 0 1 0 5.26 0 a2.63 2.63 0 1 0 -5.26 0zM805.87 367.5 a2.63 2.63 0 1 0 5.26 0 a2.63 2.63 0 1 0 -5.26 0z" fill="black"></path><path d="M658.87 367.5 a2.63 2.63 0 1 0 5.26 0 a2.63 2.63 0 1 0 -5.26 0zM679.87 409.5 a2.63 2.63 0 1 0 5.26 0 a2.63 2.63 0 1 0 -5.26 0zM679.87 577.5 a2.63 2.63 0 1 0 5.26 0 a2.63 2.63 0 1 0 -5.26 0zM637.87 388.5 a2.63 2.63 0 1 0 5.26 0 a2.63 2.63 0 1 0 -5.26 0z" fill="black"></path><path d="M805.87 304.5 a2.63 2.63 0 1 0 5.26 0 a2.63 2.63 0 1 0 -5.26 0zM826.87 262.5 a2.63 2.63 0 1 0 5.26 0 a2.63 2.63 0 1 0 -5.26 0zM826.87 325.5 a2.63 2.63 0 1 0 5.26 0 a2.63 2.63 0 1 0 -5.26 0z" fill="black"></path><path d="M553.87 157.5 a2.63 2.63 0 1 0 5.26 0 a2.63 2.63 0 1 0 -5.26 0zM616.87 367.5 a2.63 2.63 0 1 0 5.26 0 a2.63 2.63 0 1 0 -5.26 0zM637.87 241.5 a2.63 2.63 0 1 0 5.26 0 a2.63 2.63 0 1 0 -5.26 0zM616.87 283.5 a2.63 2.63 0 1 0 5.26 0 a2.63 2.63 0 1 0 -5.26 0zM574.87 157.5 a2.63 2.63 0 1 0 5.26 0 a2.63 2.63 0 1 0 -5.26 0zM574.87 199.5 a2.63 2.63 0 1 0 5.26 0 a2.63 2.63 0 1 0 -5.26 0z" fill="black"></path><path d="M805.87 556.5 a2.63 2.63 0 1 0 5.26 0 a2.63 2.63 0 1 0 -5.26 0z" fill="black"></path><path d="M574.87 304.5 a2.63 2.63 0 1 0 5.26 0 a2.63 2.63 0 1 0 -5.26 0z" fill="black"></path><path d="M847.87 388.5 a2.63 2.63 0 1 0 5.26 0 a2.63 2.63 0 1 0 -5.26 0z" fill="black"></path><path d="M595.87 577.5 a2.63 2.63 0 1 0 5.26 0 a2.63 2.63 0 1 0 -5.26 0z" fill="black"></path><path d="M847.87 262.5 a2.63 2.63 0 1 0 5.26 0 a2.63 2.63 0 1 0 -5.26 0zM868.87 157.5 a2.63 2.63 0 1 0 5.26 0 a2.63 2.63 0 1 0 -5.26 0zM889.87 283.5 a2.63 2.63 0 1 0 5.26 0 a2.63 2.63 0 1 0 -5.26 0zM868.87 325.5 a2.63 2.63 0 1 0 5.26 0 a2.63 2.63 0 1 0 -5.26 0z" fill="black"></path><path d="M532.87 262.5 a2.63 2.63 0 1 0 5.26 0 a2.63 2.63 0 1 0 -5.26 0zM595.87 514.5 a2.63 2.63 0 1 0 5.26 0 a2.63 2.63 0 1 0 -5.26 0zM532.87 157.5 a2.63 2.63 0 1 0 5.26 0 a2.63 2.63 0 1 0 -5.26 0zM553.87 304.5 a2.63 2.63 0 1 0 5.26 0 a2.63 2.63 0 1 0 -5.26 0zM595.87 535.5 a2.63 2.63 0 1 0 5.26 0 a2.63 2.63 0 1 0 -5.26 0z" fill="black"></path><path d="M889.87 409.5 a2.63 2.63 0 1 0 5.26 0 a2.63 2.63 0 1 0 -5.26 0zM868.87 430.5 a2.63 2.63 0 1 0 5.26 0 a2.63 2.63 0 1 0 -5.26 0z" fill="black"></path><path d="M511.87 136.5 a2.63 2.63 0 1 0 5.26 0 a2.63 2.63 0 1 0 -5.26 0zM511.87 325.5 a2.63 2.63 0 1 0 5.26 0 a2.63 2.63 0 1 0 -5.26 0zM511.87 451.5 a2.63 2.63 0 1 0 5.26 0 a2.63 2.63 0 1 0 -5.26 0zM490.87 136.5 a2.63 2.63 0 1 0 5.26 0 a2.63 2.63 0 1 0 -5.26 0zM469.87 115.5 a2.63 2.63 0 1 0 5.26 0 a2.63 2.63 0 1 0 -5.26 0zM490.87 262.5 a2.63 2.63 0 1 0 5.26 0 a2.63 2.63 0 1 0 -5.26 0zM469.87 262.5 a2.63 2.63 0 1 0 5.26 0 a2.63 2.63 0 1 0 -5.26 0z" fill="black"></path><path d="M910.87 388.5 a2.63 2.63 0 1 0 5.26 0 a2.63 2.63 0 1 0 -5.26 0zM910.87 451.5 a2.63 2.63 0 1 0 5.26 0 a2.63 2.63 0 1 0 -5.26 0zM910.87 514.5 a2.63 2.63 0 1 0 5.26 0 a2.63 2.63 0 1 0 -5.26 0zM910.87 472.5 a2.63 2.63 0 1 0 5.26 0 a2.63 2.63 0 1 0 -5.26 0z" fill="black"></path><path d="M532.87 556.5 a2.63 2.63 0 1 0 5.26 0 a2.63 2.63 0 1 0 -5.26 0z" fill="black"></path><path d="M931.87 409.5 a2.63 2.63 0 1 0 5.26 0 a2.63 2.63 0 1 0 -5.26 0zM910.87 535.5 a2.63 2.63 0 1 0 5.26 0 a2.63 2.63 0 1 0 -5.26 0z" fill="black"></path><path d="M469.87 514.5 a2.63 2.63 0 1 0 5.26 0 a2.63 2.63 0 1 0 -5.26 0zM490.87 493.5 a2.63 2.63 0 1 0 5.26 0 a2.63 2.63 0 1 0 -5.26 0zM511.87 493.5 a2.63 2.63 0 1 0 5.26 0 a2.63 2.63 0 1 0 -5.26 0z" fill="black"></path><path d="M931.87 577.5 a2.63 2.63 0 1 0 5.26 0 a2.63 2.63 0 1 0 -5.26 0z" fill="black"></path><path d="M469.87 598.5 a2.63 2.63 0 1 0 5.26 0 a2.63 2.63 0 1 0 -5.26 0z" fill="black"></path><path d="M973.87 157.5 a2.63 2.63 0 1 0 5.26 0 a2.63 2.63 0 1 0 -5.26 0zM994.87 157.5 a2.63 2.63 0 1 0 5.26 0 a2.63 2.63 0 1 0 -5.26 0zM994.87 304.5 a2.63 2.63 0 1 0 5.26 0 a2.63 2.63 0 1 0 -5.26 0zM994.87 220.5 a2.63 2.63 0 1 0 5.26 0 a2.63 2.63 0 1 0 -5.26 0zM952.87 325.5 a2.63 2.63 0 1 0 5.26 0 a2.63 2.63 0 1 0 -5.26 0zM952.87 283.5 a2.63 2.63 0 1 0 5.26 0 a2.63 2.63 0 1 0 -5.26 0z" fill="black"></path><path d="M1036.87 136.5 a2.63 2.63 0 1 0 5.26 0 a2.63 2.63 0 1 0 -5.26 0z" fill="black"></path><path d="M427.87 493.5 a2.63 2.63 0 1 0 5.26 0 a2.63 2.63 0 1 0 -5.26 0zM448.87 535.5 a2.63 2.63 0 1 0 5.26 0 a2.63 2.63 0 1 0 -5.26 0z" fill="black"></path><path d="M1036.87 157.5 a2.63 2.63 0 1 0 5.26 0 a2.63 2.63 0 1 0 -5.26 0zM1078.87 136.5 a2.63 2.63 0 1 0 5.26 0 a2.63 2.63 0 1 0 -5.26 0zM1015.87 493.5 a2.63 2.63 0 1 0 5.26 0 a2.63 2.63 0 1 0 -5.26 0zM1015.87 409.5 a2.63 2.63 0 1 0 5.26 0 a2.63 2.63 0 1 0 -5.26 0zM1015.87 556.5 a2.63 2.63 0 1 0 5.26 0 a2.63 2.63 0 1 0 -5.26 0zM1078.87 157.5 a2.63 2.63 0 1 0 5.26 0 a2.63 2.63 0 1 0 -5.26 0z" fill="black"></path><path d="M427.87 199.5 a2.63 2.63 0 1 0 5.26 0 a2.63 2.63 0 1 0 -5.26 0zM427.87 346.5 a2.63 2.63 0 1 0 5.26 0 a2.63 2.63 0 1 0 -5.26 0zM385.87 283.5 a2.63 2.63 0 1 0 5.26 0 a2.63 2.63 0 1 0 -5.26 0zM427.87 262.5 a2.63 2.63 0 1 0 5.26 0 a2.63 2.63 0 1 0 -5.26 0zM364.87 325.5 a2.63 2.63 0 1 0 5.26 0 a2.63 2.63 0 1 0 -5.26 0zM427.87 451.5 a2.63 2.63 0 1 0 5.26 0 a2.63 2.63 0 1 0 -5.26 0z" fill="black"></path><path d="M385.87 514.5 a2.63 2.63 0 1 0 5.26 0 a2.63 2.63 0 1 0 -5.26 0z" fill="black"></path><path d="M1015.87 472.5 a2.63 2.63 0 1 0 5.26 0 a2.63 2.63 0 1 0 -5.26 0zM1036.87 430.5 a2.63 2.63 0 1 0 5.26 0 a2.63 2.63 0 1 0 -5.26 0zM1015.87 577.5 a2.63 2.63 0 1 0 5.26 0 a2.63 2.63 0 1 0 -5.26 0z" fill="black"></path><path d="M343.87 115.5 a2.63 2.63 0 1 0 5.26 0 a2.63 2.63 0 1 0 -5.26 0zM322.87 346.5 a2.63 2.63 0 1 0 5.26 0 a2.63 2.63 0 1 0 -5.26 0zM364.87 388.5 a2.63 2.63 0 1 0 5.26 0 a2.63 2.63 0 1 0 -5.26 0zM322.87 115.5 a2.63 2.63 0 1 0 5.26 0 a2.63 2.63 0 1 0 -5.26 0zM301.87 367.5 a2.63 2.63 0 1 0 5.26 0 a2.63 2.63 0 1 0 -5.26 0zM364.87 115.5 a2.63 2.63 0 1 0 5.26 0 a2.63 2.63 0 1 0 -5.26 0zM385.87 451.5 a2.63 2.63 0 1 0 5.26 0 a2.63 2.63 0 1 0 -5.26 0z" fill="black"></path><path d="M1057.87 262.5 a2.63 2.63 0 1 0 5.26 0 a2.63 2.63 0 1 0 -5.26 0zM1078.87 262.5 a2.63 2.63 0 1 0 5.26 0 a2.63 2.63 0 1 0 -5.26 0zM1078.87 556.5 a2.63 2.63 0 1 0 5.26 0 a2.63 2.63 0 1 0 -5.26 0zM1099.87 388.5 a2.63 2.63 0 1 0 5.26 0 a2.63 2.63 0 1 0 -5.26 0zM1078.87 283.5 a2.63 2.63 0 1 0 5.26 0 a2.63 2.63 0 1 0 -5.26 0z" fill="black"></path><path d="M322.87 451.5 a2.63 2.63 0 1 0 5.26 0 a2.63 2.63 0 1 0 -5.26 0zM301.87 430.5 a2.63 2.63 0 1 0 5.26 0 a2.63 2.63 0 1 0 -5.26 0zM301.87 493.5 a2.63 2.63 0 1 0 5.26 0 a2.63 2.63 0 1 0 -5.26 0z" fill="black"></path></mask></defs></svg>