<svg xmlns="http://www.w3.org/2000/svg" version="1.1" xmlns:xlink="http://www.w3.org/1999/xlink" xmlns:svgjs="http://svgjs.com/svgjs" width="1440" height="560" preserveAspectRatio="none" viewBox="0 0 1440 560"><g mask="url(&quot;#SvgjsMask1287&quot;)" fill="none"><rect width="1440" height="560" x="0" y="0" fill="url(#SvgjsLinearGradient1288)"></rect><path d="M328 65L650 387" stroke-width="8" stroke="url(#SvgjsLinearGradient1289)" stroke-linecap="round" class="BottomRight"></path><path d="M1119 375L777 33" stroke-width="10" stroke="url(#SvgjsLinearGradient1290)" stroke-linecap="round" class="TopLeft"></path><path d="M1376 298L1771 693" stroke-width="6" stroke="url(#SvgjsLinearGradient1291)" stroke-linecap="round" class="TopLeft"></path><path d="M1255 12L1066 -177" stroke-width="10" stroke="url(#SvgjsLinearGradient1292)" stroke-linecap="round" class="BottomRight"></path><path d="M910 403L1156 649" stroke-width="10" stroke="url(#SvgjsLinearGradient1291)" stroke-linecap="round" class="TopLeft"></path><path d="M8 327L154 473" stroke-width="10" stroke="url(#SvgjsLinearGradient1291)" stroke-linecap="round" class="TopLeft"></path><path d="M174 91L17 -66" stroke-width="8" stroke="url(#SvgjsLinearGradient1289)" stroke-linecap="round" class="BottomRight"></path><path d="M495 159L113 -223" stroke-width="10" stroke="url(#SvgjsLinearGradient1291)" stroke-linecap="round" class="TopLeft"></path><path d="M202 27L527 352" stroke-width="8" stroke="url(#SvgjsLinearGradient1290)" stroke-linecap="round" class="TopLeft"></path><path d="M230 424L600 794" stroke-width="6" stroke="url(#SvgjsLinearGradient1290)" stroke-linecap="round" class="TopLeft"></path><path d="M645 396L312 63" stroke-width="8" stroke="url(#SvgjsLinearGradient1292)" stroke-linecap="round" class="BottomRight"></path><path d="M1133 121L729 -283" stroke-width="6" stroke="url(#SvgjsLinearGradient1289)" stroke-linecap="round" class="BottomRight"></path><path d="M1418 472L1009 63" stroke-width="6" stroke="url(#SvgjsLinearGradient1290)" stroke-linecap="round" class="TopLeft"></path><path d="M626 354L991 719" stroke-width="8" stroke="url(#SvgjsLinearGradient1292)" stroke-linecap="round" class="BottomRight"></path><path d="M596 157L933 494" stroke-width="6" stroke="url(#SvgjsLinearGradient1290)" stroke-linecap="round" class="TopLeft"></path><path d="M282 138L529 385" stroke-width="8" stroke="url(#SvgjsLinearGradient1292)" stroke-linecap="round" class="BottomRight"></path><path d="M71 449L477 855" stroke-width="6" stroke="url(#SvgjsLinearGradient1291)" stroke-linecap="round" class="TopLeft"></path><path d="M1373 357L1583 567" stroke-width="6" stroke="url(#SvgjsLinearGradient1292)" stroke-linecap="round" class="BottomRight"></path><path d="M1208 333L992 117" stroke-width="10" stroke="url(#SvgjsLinearGradient1290)" stroke-linecap="round" class="TopLeft"></path><path d="M1157 132L1455 430" stroke-width="10" stroke="url(#SvgjsLinearGradient1292)" stroke-linecap="round" class="BottomRight"></path><path d="M999 289L623 -87" stroke-width="6" stroke="url(#SvgjsLinearGradient1292)" stroke-linecap="round" class="BottomRight"></path><path d="M306 508L138 340" stroke-width="10" stroke="url(#SvgjsLinearGradient1289)" stroke-linecap="round" class="BottomRight"></path><path d="M975 10L733 -232" stroke-width="6" stroke="url(#SvgjsLinearGradient1289)" stroke-linecap="round" class="BottomRight"></path><path d="M1205 523L1555 873" stroke-width="8" stroke="url(#SvgjsLinearGradient1289)" stroke-linecap="round" class="BottomRight"></path><path d="M637 485L791 639" stroke-width="10" stroke="url(#SvgjsLinearGradient1291)" stroke-linecap="round" class="TopLeft"></path><path d="M946 452L743 249" stroke-width="8" stroke="url(#SvgjsLinearGradient1290)" stroke-linecap="round" class="TopLeft"></path><path d="M1423 95L1028 -300" stroke-width="10" stroke="url(#SvgjsLinearGradient1290)" stroke-linecap="round" class="TopLeft"></path><path d="M920 83L1285 448" stroke-width="8" stroke="url(#SvgjsLinearGradient1290)" stroke-linecap="round" class="TopLeft"></path><path d="M1272 395L1691 814" stroke-width="8" stroke="url(#SvgjsLinearGradient1290)" stroke-linecap="round" class="TopLeft"></path><path d="M590 470L444 324" stroke-width="8" stroke="url(#SvgjsLinearGradient1290)" stroke-linecap="round" class="TopLeft"></path><path d="M597 510L353 266" stroke-width="8" stroke="url(#SvgjsLinearGradient1291)" stroke-linecap="round" class="TopLeft"></path><path d="M998 98L841 -59" stroke-width="10" stroke="url(#SvgjsLinearGradient1292)" stroke-linecap="round" class="BottomRight"></path><path d="M1318 9L1130 -179" stroke-width="6" stroke="url(#SvgjsLinearGradient1292)" stroke-linecap="round" class="BottomRight"></path><path d="M1038 321L1261 544" stroke-width="10" stroke="url(#SvgjsLinearGradient1290)" stroke-linecap="round" class="TopLeft"></path><path d="M1109 359L1310 560" stroke-width="8" stroke="url(#SvgjsLinearGradient1289)" stroke-linecap="round" class="BottomRight"></path><path d="M365 308L557 500" stroke-width="6" stroke="url(#SvgjsLinearGradient1289)" stroke-linecap="round" class="BottomRight"></path><path d="M357 90L-7 -274" stroke-width="10" stroke="url(#SvgjsLinearGradient1289)" stroke-linecap="round" class="BottomRight"></path><path d="M886 358L596 68" stroke-width="6" stroke="url(#SvgjsLinearGradient1291)" stroke-linecap="round" class="TopLeft"></path><path d="M540 462L253 175" stroke-width="6" stroke="url(#SvgjsLinearGradient1290)" stroke-linecap="round" class="TopLeft"></path></g><defs><mask id="SvgjsMask1287"><rect width="1440" height="560" fill="#ffffff"></rect></mask><linearGradient x1="0%" y1="50%" x2="100%" y2="50%" gradientUnits="userSpaceOnUse" id="SvgjsLinearGradient1288"><stop stop-color="#0e2a47" offset="0"></stop><stop stop-color="rgba(36, 56, 82, 1)" offset="1"></stop></linearGradient><linearGradient x1="0%" y1="0%" x2="100%" y2="100%" id="SvgjsLinearGradient1289"><stop stop-color="rgba(28, 83, 142, 0)" offset="0"></stop><stop stop-color="#1c538e" offset="1"></stop></linearGradient><linearGradient x1="100%" y1="100%" x2="0%" y2="0%" id="SvgjsLinearGradient1290"><stop stop-color="rgba(90, 78, 66, 0)" offset="0"></stop><stop stop-color="rgba(90, 78, 66, 1)" offset="1"></stop></linearGradient><linearGradient x1="100%" y1="100%" x2="0%" y2="0%" id="SvgjsLinearGradient1291"><stop stop-color="rgba(28, 83, 142, 0)" offset="0"></stop><stop stop-color="#1c538e" offset="1"></stop></linearGradient><linearGradient x1="0%" y1="0%" x2="100%" y2="100%" id="SvgjsLinearGradient1292"><stop stop-color="rgba(90, 78, 66, 0)" offset="0"></stop><stop stop-color="rgba(90, 78, 66, 1)" offset="1"></stop></linearGradient></defs></svg>