<svg id="visual" viewBox="0 0 900 600" width="900" height="600" xmlns="http://www.w3.org/2000/svg" xmlns:xlink="http://www.w3.org/1999/xlink" version="1.1"><rect x="0" y="0" width="900" height="600" fill="#ece8e8"></rect><defs><linearGradient id="grad1_0" x1="33.3%" y1="100%" x2="100%" y2="0%"><stop offset="20%" stop-color="#ece8e8" stop-opacity="1"></stop><stop offset="80%" stop-color="#ece8e8" stop-opacity="1"></stop></linearGradient></defs><defs><linearGradient id="grad2_0" x1="0%" y1="100%" x2="66.7%" y2="0%"><stop offset="20%" stop-color="#ece8e8" stop-opacity="1"></stop><stop offset="80%" stop-color="#ece8e8" stop-opacity="1"></stop></linearGradient></defs><g transform="translate(900, 600)"><path d="M-486.7 0C-462.8 -55.1 -438.9 -110.1 -420.4 -174.1C-401.9 -238.1 -388.8 -311 -344.2 -344.2C-299.6 -377.4 -223.4 -370.9 -160.7 -388C-98.1 -405.2 -49.1 -446 0 -486.7L0 0Z" fill="#000000"></path></g><g transform="translate(0, 0)"><path d="M486.7 0C463.6 57 440.4 114 420.4 174.1C400.3 234.3 383.3 297.6 344.2 344.2C305.1 390.8 244 420.6 182.9 441.6C121.9 462.6 60.9 474.7 0 486.7L0 0Z" fill="#000000"></path></g></svg>